<svg width="20" height="20" viewBox="0 0 20 20" fill="none" xmlns="http://www.w3.org/2000/svg">
<path fill-rule="evenodd" clip-rule="evenodd" d="M6.86618 0C3.07409 0 0 3.07409 0 6.86618V13.1338C0 16.9259 3.07409 20 6.86618 20H13.1338C16.9259 20 20 16.9259 20 13.1338V6.86618C20 3.07409 16.9259 0 13.1338 0H6.86618ZM7.29303 12.4983L7.09311 10.5913L5.66293 4.57834H3.37157L6.3242 15.4202H7.81589L9.58216 9.45333L9.98422 8.56138H10.0611L10.3953 9.43795L12.2448 15.4202H13.6596L16.6276 4.57834H14.4901L13.1829 10.5606L12.9522 12.4983H12.8907L12.6754 10.5913L10.9648 6.74335L10.138 4.57819L9.25233 6.74335L7.56984 10.5606L7.35454 12.4983H7.29303Z" fill="#D9D9D9"/>
</svg>
