<svg width="23" height="23" viewBox="0 0 23 23" fill="none" xmlns="http://www.w3.org/2000/svg">
<path fill-rule="evenodd" clip-rule="evenodd" d="M4.35284 8.60743C4.35284 12.7317 7.6885 16.0674 11.8128 16.0674C15.9371 16.0674 19.2727 12.7317 19.2727 8.60743V5.41032C19.2727 3.05511 17.5239 1.49523 15.0099 1.1475C12.4959 0.799762 11.3219 0.729176 8.61566 1.1475C5.90942 1.56582 4.35284 3.05511 4.35284 5.41032V8.60743ZM11.7615 5.75573C15.1673 5.75573 17.9283 4.80834 17.9283 3.63967C17.9283 2.47101 15.1673 1.52362 11.7615 1.52362C8.35564 1.52362 5.59466 2.47101 5.59466 3.63967C5.59466 4.80834 8.35564 5.75573 11.7615 5.75573Z" fill="#D9D9D9"/>
<path fill-rule="evenodd" clip-rule="evenodd" d="M11.9808 15.1064C12.891 15.1064 13.6288 15.5759 13.6288 16.155V19.0909C13.6288 19.67 12.891 20.1394 11.9808 20.1394C11.0707 20.1394 10.3328 19.67 10.3328 19.0909V16.155C10.3328 15.5759 11.0707 15.1064 11.9808 15.1064Z" fill="#D9D9D9"/>
<path d="M6.64056 22.4615H17.2976V21.3958C17.2976 20.2235 16.3385 19.2644 15.1662 19.2644H8.77197C7.5997 19.2644 6.64056 20.2235 6.64056 21.3958V22.4615Z" fill="#D9D9D9"/>
<path fill-rule="evenodd" clip-rule="evenodd" d="M5.04016 22.4614C5.04016 22.1637 5.28149 21.9224 5.57918 21.9224H18.3676C18.6653 21.9224 18.9067 22.1637 18.9067 22.4614C18.9067 22.7591 18.6653 23.0004 18.3676 23.0004H5.57918C5.28149 23.0004 5.04016 22.7591 5.04016 22.4614Z" fill="#D9D9D9"/>
<path fill-rule="evenodd" clip-rule="evenodd" d="M3.8121 4.19087C2.64127 4.21576 1.73552 5.13757 1.73552 6.31559C1.73552 7.63642 2.29653 8.78869 3.18615 9.78091C3.41124 10.0047 3.66191 10.2116 3.93335 10.3919C3.77828 9.77088 3.69473 9.12087 3.69473 8.447V5.24988C3.69473 4.88966 3.73345 4.53426 3.8121 4.19087ZM0.657471 6.31559C0.657471 4.52591 2.07107 3.1123 3.86076 3.1123H4.55346C4.73515 3.1123 4.90462 3.20384 5.00424 3.35578C5.10386 3.50772 5.12023 3.69963 5.04778 3.86625C4.8666 4.28297 4.77277 4.75255 4.77277 5.24988V8.447C4.77277 9.43581 4.98017 10.3653 5.347 11.2179C5.43048 11.412 5.39294 11.6369 5.25096 11.7933C5.10899 11.9497 4.88875 12.0087 4.68758 11.9444C3.79501 11.6587 3.01963 11.139 2.4139 10.5333C2.40722 10.5266 2.40072 10.5197 2.3944 10.5127C1.37128 9.37592 0.657471 7.97402 0.657471 6.31559Z" fill="#D9D9D9"/>
<path fill-rule="evenodd" clip-rule="evenodd" d="M18.6183 3.35578C18.7179 3.20384 18.8874 3.1123 19.0691 3.1123H19.7618C21.5514 3.1123 22.9651 4.52591 22.9651 6.31559C22.9651 7.97402 22.2512 9.37592 21.2281 10.5127C21.2218 10.5197 21.2153 10.5266 21.2086 10.5333C20.6029 11.139 19.8275 11.6587 18.9349 11.9444C18.7338 12.0087 18.5135 11.9497 18.3716 11.7933C18.2296 11.6369 18.192 11.412 18.2755 11.2179C18.6424 10.3653 18.8497 9.43581 18.8497 8.447V5.24988C18.8497 4.75255 18.7559 4.28297 18.5747 3.86625C18.5023 3.69963 18.5187 3.50772 18.6183 3.35578ZM19.8104 4.19087C19.8891 4.53426 19.9278 4.88966 19.9278 5.24988V8.447C19.9278 9.12087 19.8442 9.77088 19.6892 10.3919C19.9606 10.2116 20.2113 10.0047 20.4364 9.78091C21.326 8.78869 21.887 7.63642 21.887 6.31559C21.887 5.13757 20.9812 4.21576 19.8104 4.19087Z" fill="#D9D9D9"/>
</svg>
