<svg width="25" height="25" viewBox="0 0 25 25" fill="none" xmlns="http://www.w3.org/2000/svg">
<path fill-rule="evenodd" clip-rule="evenodd" d="M18.5059 10.0669C18.5053 10.5345 18.4653 10.9929 18.389 11.439C20.1826 12.4598 21.3921 14.3886 21.3921 16.5999C21.3921 19.0337 19.9269 21.1253 17.8305 22.0407V21.2911C19.5413 20.4242 20.7139 18.649 20.7139 16.5999C20.7139 14.7176 19.7244 13.0664 18.2373 12.1381C18.0582 12.8169 17.7936 13.461 17.4558 14.0582C17.5695 14.1698 17.669 14.2975 17.7506 14.4389C17.9149 14.7235 17.8176 15.0872 17.5346 15.2522C17.2698 15.4055 16.9378 15.3319 16.7613 15.0922C16.5068 15.4149 16.2284 15.7179 15.9287 15.9985L16.4569 16.0868C18.535 16.4732 18.0876 19.5113 16.0504 19.4994V20.0947C16.0475 20.8734 14.8666 20.8728 14.8636 20.0947V19.4994H14.7046C14.0714 19.4994 13.4804 19.1576 13.1629 18.6069C12.9985 18.3218 13.0958 17.958 13.3789 17.7937C13.6631 17.6276 14.0263 17.7264 14.1895 18.0104C14.2957 18.195 14.4927 18.3087 14.704 18.3087H16.0498C16.6415 18.3474 16.9061 17.3859 16.2611 17.2609L14.6334 16.9886C13.4143 17.7403 11.9821 18.1795 10.4483 18.1944C10.8776 19.5445 11.8376 20.658 13.0832 21.29V22.0397C11.4562 21.3284 10.2098 19.9087 9.73393 18.1705C9.31518 18.1382 8.90531 18.0743 8.50671 17.981C10.1245 25.9593 22.2412 25.4711 22.578 16.5226C22.578 13.6771 20.9113 11.2149 18.5059 10.0669Z" fill="#D9D9D9"/>
<g filter="url(#filter0_d_797_255)">
<path fill-rule="evenodd" clip-rule="evenodd" d="M1.72192 9.41719C1.72192 4.91501 5.37259 1.25244 9.86014 1.25244C14.3477 1.25244 17.9983 4.91501 17.9983 9.41719C17.5914 20.2314 2.13087 20.2341 1.72192 9.41719ZM10.5383 13.4996V12.8192C12.8665 12.8328 13.3779 9.36072 11.0029 8.91914L8.94052 8.57418C8.20401 8.4313 8.5058 7.33246 9.18195 7.37668H10.7201C10.9615 7.37668 11.1867 7.50664 11.3081 7.71688C11.4946 8.04211 11.9089 8.15369 12.2345 7.96522C12.558 7.77676 12.6692 7.36103 12.4813 7.0358C12.1185 6.40644 11.443 6.01521 10.7194 6.01521H10.5376V5.33482C10.5343 4.44554 9.18534 4.44486 9.18127 5.33482V6.01521C6.85307 6.0016 6.34172 9.47434 8.71672 9.91592L10.7791 10.2609C11.5163 10.4038 11.2138 11.5026 10.5376 11.4584H8.99952C8.75809 11.4584 8.53293 11.3284 8.41153 11.1175C8.22503 10.7929 7.80998 10.68 7.48513 10.8698C7.16164 11.0576 7.05042 11.4733 7.23828 11.7993C7.6011 12.4286 8.27658 12.8192 9.0002 12.8192H9.18195V13.4996C9.18534 14.3888 10.5349 14.3895 10.5383 13.4996ZM3.07858 9.50391C3.07858 6.72257 4.75289 4.33229 7.1486 3.28598V4.03426C5.13835 5.03285 3.75676 7.10704 3.75676 9.50391C3.75676 11.9008 5.13835 13.975 7.1486 14.9736V15.7218C4.75289 14.6755 3.07858 12.2853 3.07858 9.50391ZM15.9641 9.50391C15.9641 11.9001 14.5833 13.9737 12.5741 14.9727V15.7211C14.9688 14.6743 16.6423 12.2845 16.6423 9.50391C16.6423 6.72328 14.9688 4.3335 12.5741 3.28678V4.03516C14.5833 5.0341 15.9641 7.10776 15.9641 9.50391Z" fill="#D9D9D9"/>
</g>
<path d="M4.23206 24.4157H1.17882C0.530447 24.4157 -3.86238e-05 23.8852 -3.86238e-05 23.2368V20.1836C-3.86238e-05 19.1344 1.27312 18.6039 2.0158 19.3466L5.06904 22.3998C5.79993 23.1425 5.28124 24.4157 4.23206 24.4157Z" fill="#D9D9D9"/>
<path d="M20.1783 0H23.2316C23.8799 0 24.4104 0.530486 24.4104 1.17886V4.2321C24.4104 5.28128 23.1373 5.81176 22.3946 5.06907L19.3414 2.01584C18.6105 1.27316 19.1292 0 20.1783 0Z" fill="#D9D9D9"/>
<defs>
<filter id="filter0_d_797_255" x="1.04374" y="0.574257" width="20.3455" height="20.3455" filterUnits="userSpaceOnUse" color-interpolation-filters="sRGB">
<feFlood flood-opacity="0" result="BackgroundImageFix"/>
<feColorMatrix in="SourceAlpha" type="matrix" values="0 0 0 0 0 0 0 0 0 0 0 0 0 0 0 0 0 0 127 0" result="hardAlpha"/>
<feOffset dx="1.35637" dy="1.35637"/>
<feGaussianBlur stdDeviation="1.01728"/>
<feComposite in2="hardAlpha" operator="out"/>
<feColorMatrix type="matrix" values="0 0 0 0 0 0 0 0 0 0 0 0 0 0 0 0 0 0 0.25 0"/>
<feBlend mode="normal" in2="BackgroundImageFix" result="effect1_dropShadow_797_255"/>
<feBlend mode="normal" in="SourceGraphic" in2="effect1_dropShadow_797_255" result="shape"/>
</filter>
</defs>
</svg>
