<svg width="50" height="50" viewBox="0 0 50 50" fill="none" xmlns="http://www.w3.org/2000/svg">
<rect width="32" height="32.5333" transform="translate(9 9.2334)" fill="white"/>
<rect width="50" height="50" rx="10" fill="#1C1C1C"/>
<path d="M29.3204 39.3332H20.6804C18.1604 39.3332 16.3204 38.2798 15.6137 36.4665C14.8804 34.5732 15.5604 32.2265 17.3204 30.6398L23.5071 24.9998L17.3204 19.3598C15.5604 17.7732 14.8804 15.4265 15.6137 13.5332C16.3204 11.7065 18.1604 10.6665 20.6804 10.6665H29.3204C31.8404 10.6665 33.6804 11.7198 34.3871 13.5332C35.1204 15.4265 34.4404 17.7732 32.6804 19.3598L26.4937 24.9998L32.6937 30.6398C34.4404 32.2265 35.1337 34.5732 34.4004 36.4665C33.6804 38.2798 31.8404 39.3332 29.3204 39.3332ZM25.0004 26.3465L18.6671 32.1065C17.5471 33.1332 17.0537 34.6265 17.4804 35.7332C17.8804 36.7598 19.0137 37.3332 20.6804 37.3332H29.3204C30.9871 37.3332 32.1204 36.7732 32.5204 35.7332C32.9471 34.6265 32.4671 33.1332 31.3337 32.1065L25.0004 26.3465ZM20.6804 12.6665C19.0137 12.6665 17.8804 13.2265 17.4804 14.2665C17.0537 15.3732 17.5337 16.8665 18.6671 17.8932L25.0004 23.6532L31.3337 17.8932C32.4537 16.8665 32.9471 15.3732 32.5204 14.2665C32.1204 13.2398 30.9871 12.6665 29.3204 12.6665H20.6804Z" fill="white"/>
</svg>
