<svg width="50" height="50" viewBox="0 0 50 50" fill="none" xmlns="http://www.w3.org/2000/svg">
<rect width="32" height="32.5333" transform="translate(9 9.2334)" fill="white"/>
<rect width="50" height="50" rx="10" fill="#1C1C1C"/>
<path d="M29.6667 29.9998C29.4267 29.9998 29.16 29.9865 28.9067 29.9732C28.4133 29.9465 28.0133 29.5465 27.9733 29.0532C27.68 25.3332 24.6533 22.3198 20.9467 22.0265C20.4533 21.9865 20.0533 21.5865 20.0267 21.0932C20.0133 20.8398 20 20.5865 20 20.3332C20 14.9998 24.3333 10.6665 29.6667 10.6665C35 10.6665 39.3333 14.9998 39.3333 20.3332C39.3333 25.6665 35 29.9998 29.6667 29.9998ZM22 20.1465C25.9733 20.8398 29.16 24.0265 29.8534 27.9998C34 27.8932 37.3333 24.5065 37.3333 20.3332C37.3333 16.1065 33.8933 12.6665 29.6667 12.6665C25.5067 12.6665 22.1067 15.9998 22 20.1465Z" fill="white"/>
<path d="M20.3337 39.3333C15.0003 39.3333 10.667 35 10.667 29.6667C10.667 24.3333 15.0003 20 20.3337 20C20.5737 20 20.8403 20.0133 21.0937 20.0267C25.8003 20.4 29.6137 24.2134 29.9737 28.8934C29.987 29.16 30.0003 29.4133 30.0003 29.6667C30.0003 35 25.667 39.3333 20.3337 39.3333ZM20.3337 22C16.107 22 12.667 25.44 12.667 29.6667C12.667 33.8933 16.107 37.3333 20.3337 37.3333C24.5603 37.3333 28.0003 33.8933 28.0003 29.6667C28.0003 29.4533 27.987 29.24 27.9737 29.04C27.6803 25.3467 24.667 22.32 20.947 22.0267C20.7603 22.0133 20.547 22 20.3337 22Z" fill="white"/>
<path d="M13.0003 18.7865C12.6937 18.7865 12.4003 18.7332 12.107 18.6132C11.227 18.2532 10.667 17.3998 10.667 16.4532V12.9998C10.667 11.7198 11.7203 10.6665 13.0003 10.6665H16.4537C17.4003 10.6665 18.2403 11.2265 18.6136 12.1065C18.9736 12.9865 18.7736 13.9865 18.107 14.6532L14.6536 18.1065C14.2003 18.5465 13.6137 18.7865 13.0003 18.7865ZM13.0003 12.6665C12.8137 12.6665 12.667 12.8132 12.667 12.9998V16.4532C12.667 16.6532 12.8003 16.7332 12.867 16.7598C12.947 16.7865 13.0937 16.8265 13.227 16.6932L16.6803 13.2398C16.8137 13.1065 16.787 12.9598 16.747 12.8798C16.707 12.7998 16.627 12.6799 16.4403 12.6799H13.0003V12.6665Z" fill="white"/>
<path d="M37.0001 39.3334H33.5468C32.6001 39.3334 31.7601 38.7734 31.3868 37.8934C31.0268 37.0134 31.2268 36.0134 31.8934 35.3468L35.3468 31.8934C36.0134 31.2268 37.0134 31.0268 37.8934 31.3868C38.7734 31.7468 39.3334 32.6001 39.3334 33.5468V37.0001C39.3334 38.2801 38.2801 39.3334 37.0001 39.3334ZM36.9867 33.2134C36.9201 33.2134 36.8401 33.2401 36.7601 33.3201L33.3068 36.7734C33.1734 36.9067 33.2001 37.0534 33.2401 37.1334C33.2801 37.2134 33.3601 37.3334 33.5468 37.3334H37.0001C37.1868 37.3334 37.3334 37.1868 37.3334 37.0001V33.5468C37.3334 33.3468 37.2001 33.2667 37.1334 33.2401C37.0934 33.2267 37.0401 33.2134 36.9867 33.2134Z" fill="white"/>
</svg>
