<svg width="50" height="50" viewBox="0 0 50 50" fill="none" xmlns="http://www.w3.org/2000/svg">
<rect width="32" height="32.5333" transform="translate(9 9.2334)" fill="white"/>
<rect width="50" height="50" rx="10" fill="#1C1C1C"/>
<path d="M29.666 30.0002C29.426 30.0002 29.1594 29.9868 28.9194 29.9735C28.426 29.9468 28.026 29.5468 27.986 29.0535C27.6927 25.3335 24.666 22.3201 20.9594 22.0268C20.466 21.9868 20.066 21.5868 20.0393 21.0935C20.026 20.8535 20.0127 20.5868 20.0127 20.3468C20.0127 15.0135 24.346 10.6802 29.6794 10.6802C35.0127 10.6802 39.346 15.0135 39.346 20.3468C39.346 25.6802 34.9993 30.0002 29.666 30.0002ZM21.9993 20.1468C25.9727 20.8535 29.1594 24.0268 29.8527 28.0002C33.9994 27.8935 37.3327 24.5068 37.3327 20.3335C37.3327 16.1068 33.8927 12.6668 29.666 12.6668C25.506 12.6668 22.106 16.0001 21.9993 20.1468Z" fill="white"/>
<path d="M20.3337 39.3333C15.0003 39.3333 10.667 35 10.667 29.6667C10.667 24.3333 15.0003 20 20.3337 20C20.5737 20 20.8403 20.0133 21.0803 20.0267C25.787 20.4 29.6003 24.2134 29.9603 28.8934C29.9737 29.16 29.987 29.4267 29.987 29.6667C30.0003 35 25.667 39.3333 20.3337 39.3333ZM20.3337 22C16.107 22 12.667 25.44 12.667 29.6667C12.667 33.8933 16.107 37.3333 20.3337 37.3333C24.5603 37.3333 28.0003 33.8933 28.0003 29.6667C28.0003 29.4533 27.987 29.24 27.9737 29.0267C27.6803 25.3333 24.6536 22.3067 20.947 22.0133C20.7603 22.0133 20.547 22 20.3337 22Z" fill="white"/>
<path d="M20.3333 34.0002C19.9733 34.0002 19.6267 33.8002 19.4533 33.4802L18.4133 31.5869L16.52 30.5469C16.2 30.3735 16 30.0402 16 29.6668C16 29.2935 16.2 28.9602 16.52 28.7868L18.4133 27.7468L19.4533 25.8535C19.8 25.2135 20.8533 25.2135 21.2133 25.8535L22.2533 27.7468L24.1466 28.7868C24.4666 28.9602 24.6667 29.2935 24.6667 29.6668C24.6667 30.0402 24.4666 30.3735 24.1466 30.5469L22.2533 31.5869L21.2133 33.4802C21.04 33.8002 20.6933 34.0002 20.3333 34.0002ZM19.08 29.6668L19.6267 29.9735C19.8 30.0669 19.9333 30.2002 20.0267 30.3735L20.3333 30.9202L20.64 30.3735C20.7333 30.2002 20.8667 30.0669 21.04 29.9735L21.5867 29.6668L21.04 29.3602C20.8667 29.2668 20.7333 29.1335 20.64 28.9602L20.3333 28.4135L20.0267 28.9602C19.9333 29.1335 19.8 29.2668 19.6267 29.3602L19.08 29.6668Z" fill="white"/>
</svg>
