<svg width="50" height="51" viewBox="0 0 50 51" fill="none" xmlns="http://www.w3.org/2000/svg">
<rect width="32" height="32.5333" transform="translate(9 9.3999)" fill="white"/>
<rect y="0.166504" width="50" height="50" rx="10" fill="#191919"/>
<path d="M20.7539 28.4231C20.7539 30.1716 22.0958 31.5812 23.7629 31.5812H27.165C28.6153 31.5812 29.7945 30.3478 29.7945 28.8297C29.7945 27.1761 29.0762 26.5933 28.0054 26.2138L22.5431 24.3162C21.4723 23.9367 20.7539 23.3538 20.7539 21.7002C20.7539 20.1822 21.9331 18.9487 23.3834 18.9487H26.7855C28.4527 18.9487 29.7945 20.3584 29.7945 22.1069" stroke="white" stroke-width="1.5" stroke-linecap="round" stroke-linejoin="round"/>
<path d="M25.2646 17.1323V33.3973" stroke="white" stroke-width="1.5" stroke-linecap="round" stroke-linejoin="round"/>
<path d="M25.2651 38.8188C32.7509 38.8188 38.8193 32.7504 38.8193 25.2646C38.8193 17.7789 32.7509 11.7104 25.2651 11.7104C17.7793 11.7104 11.7109 17.7789 11.7109 25.2646C11.7109 32.7504 17.7793 38.8188 25.2651 38.8188Z" stroke="white" stroke-width="1.5" stroke-linecap="round" stroke-linejoin="round"/>
</svg>
