<svg width="138" height="153" viewBox="0 0 138 153" fill="none" xmlns="http://www.w3.org/2000/svg">
<g opacity="0.6">
<path d="M179.858 81.1731C179.936 31.563 139.769 -8.73145 90.1422 -8.82696C40.5151 -8.92247 0.220701 31.2171 0.142178 80.8272C0.0636553 130.437 40.2307 170.732 89.8578 170.827C139.485 170.923 179.779 130.783 179.858 81.1731Z" fill="#3574B9"/>
<path d="M75.4434 137.105C75.4434 139.132 74.1228 139.842 72.142 139.842C60.146 135.871 49.6754 128.011 42.2512 117.404C34.8271 106.798 30.8359 93.9968 30.8575 80.861C30.8792 67.7252 34.9125 54.9387 42.3716 44.3589C49.8308 33.7791 60.3272 25.957 72.3362 22.0289C74.2782 21.36 75.6376 22.7181 75.6182 24.7857V29.671C75.6328 30.3742 75.4587 31.0677 75.1155 31.6731C74.7723 32.2785 74.2738 32.7716 73.6762 33.0967C64.2301 36.6457 56.0606 43.1456 50.279 51.7123C44.4974 60.2791 41.3842 70.4968 41.363 80.9757C41.3417 91.4546 44.4135 101.686 50.1604 110.278C55.9073 118.87 64.0503 125.406 73.482 128.997C74.081 129.32 74.5809 129.813 74.9244 130.419C75.2678 131.024 75.4409 131.719 75.424 132.423L75.4434 137.105Z" fill="white"/>
<path d="M95.1743 120.078C95.1518 120.806 94.8712 121.499 94.3868 122.024C93.9024 122.548 93.2488 122.866 92.5525 122.916H87.2896C86.6061 122.868 85.9629 122.561 85.4803 122.054C84.9977 121.546 84.7089 120.873 84.6679 120.159V112.051C74.1421 110.652 68.8986 104.49 66.9372 95.5706C66.9372 94.2125 67.6169 92.8341 68.8792 92.8341H74.8024C76.1035 92.8341 76.7444 93.5233 77.4241 94.8612C78.7253 99.6653 81.3082 103.78 89.892 103.801C96.456 103.801 101.059 100.395 101.078 94.922C101.097 89.4489 98.4563 87.3813 89.2705 85.9827C75.4627 83.9556 68.8986 79.7799 68.918 68.1445C68.918 59.2457 75.5209 52.3943 84.7262 51.0564V42.6644C84.7676 41.9527 85.0571 41.2816 85.5401 40.7774C86.0231 40.2733 86.6661 39.9711 87.3479 39.9279H92.6108C93.2926 39.9711 93.9356 40.2733 94.4186 40.7774C94.9016 41.2816 95.1911 41.9527 95.2325 42.6644V50.8942C103.117 52.2726 108.361 57.0768 109.662 64.6174C109.662 65.9756 109.002 67.354 107.72 67.354H102.496C101.175 67.354 100.554 66.6648 99.874 65.3269C98.5728 60.5228 95.2908 58.4552 89.3676 58.4552C82.8035 58.4552 79.5021 61.8606 79.5021 66.5634C79.5021 71.2662 81.4441 74.1041 91.3096 75.5028C105.098 77.5298 111.662 81.7056 111.643 93.3409C111.643 102.24 105.059 109.76 95.1937 111.807L95.1743 120.078Z" fill="white"/>
<path d="M104.34 137.227C104.34 139.274 105.68 140.652 107.622 139.963C119.63 136.029 130.126 128.208 137.591 117.632C145.056 107.056 149.102 94.2742 149.143 81.138C149.182 53.7524 131.49 30.4209 107.856 22.1505C105.875 22.1505 104.554 22.86 104.554 24.8871V29.6912C104.539 30.3945 104.713 31.088 105.057 31.6934C105.4 32.2988 105.898 32.7919 106.496 33.1169C115.927 36.7096 124.069 43.2473 129.814 51.8408C135.559 60.4342 138.629 70.6663 138.605 81.1452C138.582 91.6241 135.467 101.841 129.683 110.407C123.9 118.972 115.729 125.47 106.282 129.017C105.685 129.337 105.186 129.826 104.842 130.428C104.499 131.031 104.325 131.722 104.34 132.423V137.227Z" fill="white"/>
</g>
</svg>
